<?xml version="1.0" encoding="UTF-8" standalone="no"?>
<!-- Created with Inkscape (http://www.inkscape.org/) -->

<svg
   width="512"
   height="512"
   viewBox="0 0 135.46666 135.46667"
   version="1.1"
   id="svg1"
   xml:space="preserve"
   inkscape:version="1.4 (1:1.4+202410161351+e7c3feb100)"
   sodipodi:docname="app_icon.svg"
   xmlns:inkscape="http://www.inkscape.org/namespaces/inkscape"
   xmlns:sodipodi="http://sodipodi.sourceforge.net/DTD/sodipodi-0.dtd"
   xmlns="http://www.w3.org/2000/svg"
   xmlns:svg="http://www.w3.org/2000/svg"><sodipodi:namedview
     id="namedview1"
     pagecolor="#ffffff"
     bordercolor="#000000"
     borderopacity="0.25"
     inkscape:showpageshadow="2"
     inkscape:pageopacity="0.0"
     inkscape:pagecheckerboard="0"
     inkscape:deskcolor="#d1d1d1"
     inkscape:document-units="px"
     inkscape:zoom="1.2167208"
     inkscape:cx="388.33887"
     inkscape:cy="282.31619"
     inkscape:window-width="1920"
     inkscape:window-height="1131"
     inkscape:window-x="0"
     inkscape:window-y="32"
     inkscape:window-maximized="1"
     inkscape:current-layer="layer1" /><defs
     id="defs1"><inkscape:path-effect
       effect="perspective-envelope"
       up_left_point="1.552625,0"
       up_right_point="510.44795,0"
       down_left_point="1.552625,512.00101"
       down_right_point="510.44795,512.00101"
       id="path-effect37"
       is_visible="true"
       lpeversion="1"
       deform_type="perspective"
       horizontal_mirror="false"
       vertical_mirror="false"
       overflow_perspective="false" /></defs><g
     inkscape:label="Layer 1"
     inkscape:groupmode="layer"
     id="layer1"><rect
       style="fill:#084f5e;stroke:none;stroke-width:1.32292;stroke-linecap:round;stroke-linejoin:round;opacity:1;fill-opacity:1"
       id="rect1"
       width="135.46666"
       height="135.46666"
       x="0"
       y="0" /><g
       id="g37"
       transform="translate(8.7180383e-8,0.10947461)"><g
         id="g15"
         transform="matrix(0.78669927,0,0,0.78669927,29.61678,13.744929)"><path
           style="opacity:1;fill:#ffffff;fill-opacity:1;stroke:none;stroke-width:1.32292;stroke-linecap:round;stroke-linejoin:round"
           d="m 47.128869,40.747635 -11.83988,6.765644 -21.757699,13.146879 -1.998941,7.073174 0.384412,21.14264 0.461294,14.684528 4.843587,4.22853 c 0,0 23.295345,13.37752 23.602875,13.76193 0.307528,0.38442 2.229588,1.307 2.767764,1.53765 0.538176,0.23065 3.075292,0.61506 3.61347,0.69194 0.538176,0.0769 4.536057,-0.38441 4.536057,-0.38441 L 80.4958,106.55891 84.263033,103.5605 84.878091,96.256678 84.339916,64.504275 82.110328,59.660689 50.434808,41.055165 Z"
           id="path15" /><g
           id="g14"
           transform="matrix(0.16895672,0,0,0.16895672,5.1984817,39.470762)">
	<path
   class="st0"
   d="M 449.528,105.602 288.459,8.989 C 278.469,2.994 267.232,0 255.993,0 244.768,0 233.53,2.994 223.541,8.989 l -161.07,96.613 c -19.012,11.406 -30.64,31.95 -30.64,54.117 v 192.562 c 0,22.168 11.628,42.711 30.64,54.117 l 161.069,96.613 c 9.989,5.988 21.228,8.989 32.452,8.989 11.239,0 22.476,-3.001 32.466,-8.989 l 161.069,-96.613 c 19.013,-11.406 30.64,-31.95 30.64,-54.117 V 159.719 c 0.001,-22.167 -11.626,-42.711 -30.639,-54.117 z M 250.595,492.733 c -6.028,-0.745 -11.936,-2.712 -17.321,-5.948 L 72.206,390.172 C 58.9,382.182 50.75,367.802 50.75,352.281 V 159.719 c 0,-6.022 1.242,-11.862 3.518,-17.233 l 196.328,117.76 V 492.733 Z M 59.665,133.114 c 3.37,-4.464 7.593,-8.318 12.54,-11.285 L 233.274,25.216 c 6.996,-4.196 14.85,-6.291 22.718,-6.291 7.882,0 15.737,2.095 22.732,6.291 l 161.069,96.613 c 4.942,2.967 9.171,6.821 12.54,11.285 l -196.34,117.767 z m 401.584,219.167 c 0,15.521 -8.15,29.901 -21.456,37.891 l -161.069,96.613 c -5.397,3.236 -11.292,5.203 -17.32,5.948 V 260.246 l 196.328,-117.76 c 2.282,5.37 3.518,11.211 3.518,17.233 v 192.562 z"
   id="path1" />
	<path
   class="st0"
   d="m 367.96,114.498 c -10.809,-8.01 -28.626,-8.204 -39.784,-0.45 -11.158,7.754 -11.44,20.543 -0.631,28.546 10.822,8.002 28.626,8.203 39.784,0.45 11.158,-7.762 11.44,-20.537 0.631,-28.546 z"
   id="path2" />
	<path
   class="st0"
   d="m 183.676,112.289 c -10.816,-8.003 -28.626,-8.211 -39.784,-0.45 -11.158,7.754 -11.44,20.536 -0.631,28.538 10.808,8.009 28.626,8.204 39.784,0.456 11.158,-7.766 11.439,-20.542 0.631,-28.544 z"
   id="path3" />
	<path
   class="st0"
   d="m 89.285,248.303 c 11.158,6.083 20.194,1.961 20.194,-9.19 0,-11.158 -9.036,-25.129 -20.194,-31.21 -11.158,-6.083 -20.201,-1.967 -20.201,9.19 0,11.151 9.043,25.128 20.201,31.21 z"
   id="path4" />
	<path
   class="st0"
   d="m 202.057,309.771 c 11.164,6.082 20.207,1.967 20.207,-9.184 0,-11.157 -9.043,-25.135 -20.207,-31.217 -11.144,-6.076 -20.194,-1.961 -20.194,9.198 0,11.151 9.05,25.121 20.194,31.203 z"
   id="path5" />
	<path
   class="st0"
   d="m 89.285,361.082 c 11.158,6.083 20.194,1.967 20.194,-9.19 0,-11.158 -9.036,-25.129 -20.194,-31.21 -11.158,-6.083 -20.201,-1.968 -20.201,9.19 0,11.157 9.043,25.128 20.201,31.21 z"
   id="path6" />
	<path
   class="st0"
   d="m 202.057,422.55 c 11.164,6.082 20.207,1.967 20.207,-9.191 0,-11.151 -9.043,-25.128 -20.207,-31.21 -11.144,-6.076 -20.194,-1.961 -20.194,9.19 0,11.158 9.05,25.129 20.194,31.211 z"
   id="path7" />
	<path
   class="st0"
   d="m 145.671,335.43 c 11.158,6.076 20.201,1.96 20.201,-9.198 0,-11.151 -9.043,-25.128 -20.201,-31.204 -11.15,-6.082 -20.2,-1.967 -20.2,9.184 0,11.158 9.05,25.129 20.2,31.218 z"
   id="path8" />
	<path
   class="st0"
   d="m 414.538,204.559 c -11.158,6.082 -20.194,20.052 -20.194,31.21 0,11.158 9.036,15.273 20.194,9.191 11.157,-6.083 20.207,-20.053 20.207,-31.211 0,-11.158 -9.05,-15.273 -20.207,-9.19 z"
   id="path9" />
	<path
   class="st0"
   d="m 414.538,270.33 c -11.158,6.09 -20.194,20.053 -20.194,31.211 0,11.158 9.036,15.273 20.194,9.198 11.157,-6.083 20.207,-20.06 20.207,-31.211 0,-11.158 -9.05,-15.28 -20.207,-9.198 z"
   id="path10" />
	<path
   class="st0"
   d="m 316.36,302.642 c 11.158,-6.082 20.208,-20.053 20.208,-31.211 0,-11.151 -9.05,-15.266 -20.208,-9.19 -11.158,6.082 -20.194,20.059 -20.194,31.21 0,11.158 9.037,15.273 20.194,9.191 z"
   id="path11" />
	<path
   class="st0"
   d="m 414.538,336.108 c -11.158,6.082 -20.194,20.053 -20.194,31.204 0,11.158 9.036,15.273 20.194,9.198 11.157,-6.083 20.207,-20.06 20.207,-31.218 0,-11.151 -9.05,-15.266 -20.207,-9.184 z"
   id="path12" />
	<path
   class="st0"
   d="m 316.36,393.79 c -11.158,6.082 -20.194,20.053 -20.194,31.211 0,11.15 9.037,15.266 20.194,9.184 11.158,-6.076 20.208,-20.053 20.208,-31.204 0,-11.158 -9.05,-15.273 -20.208,-9.191 z"
   id="path13" />
	<path
   class="st0"
   d="m 317.569,328.018 c -11.158,6.076 -20.194,20.053 -20.194,31.204 0,11.158 9.036,15.273 20.194,9.191 11.158,-6.082 20.208,-20.053 20.208,-31.21 -10e-4,-11.151 -9.05,-15.267 -20.208,-9.185 z"
   id="path14" />
</g></g><g
         style="fill:#ffffff"
         id="g5"
         transform="matrix(0.03201792,0,0,0.03201792,59.536733,22.39708)"><g
           id="g2"
           style="fill:#ffffff">
	<g
   id="g1"
   style="fill:#ffffff">
		<path
   d="M 509.626,81.138 C 507.653,75.065 502.404,70.639 496.084,69.722 L 438.669,61.379 412.993,9.351 C 410.168,3.625 404.336,0 397.951,0 391.566,0 385.734,3.625 382.908,9.35 l -25.677,52.028 -57.415,8.343 c -6.318,0.917 -11.569,5.343 -13.542,11.416 -1.974,6.074 -0.328,12.74 4.244,17.196 l 41.546,40.499 -9.808,57.183 c -1.079,6.294 1.507,12.654 6.673,16.408 5.164,3.751 12.012,4.249 17.666,1.277 l 51.354,-27 51.355,27 c 5.649,2.969 12.5,2.477 17.666,-1.278 5.166,-3.752 7.753,-10.113 6.673,-16.407 l -9.808,-57.183 41.546,-40.498 c 4.573,-4.456 6.219,-11.122 4.245,-17.196 z"
   id="path1-3"
   style="fill:#ffffff" />
	</g>
</g><g
           id="g4"
           style="fill:#ffffff">
	<g
   id="g3"
   style="fill:#ffffff">
		<path
   d="m 500.36,299.326 c -6.315,-3.812 -14.383,-3.051 -19.874,1.879 -36.233,32.524 -81.655,48.663 -126.99,48.658 -48.689,-0.003 -97.275,-18.623 -134.208,-55.556 -71.321,-71.321 -74.351,-186.054 -6.897,-261.2 4.928,-5.49 5.691,-13.556 1.879,-19.874 -3.813,-6.317 -11.307,-9.398 -18.46,-7.599 -45.132,11.371 -86.233,34.627 -118.861,67.255 -100.524,100.524 -100.533,263.225 0,363.758 100.411,100.412 263.224,100.532 363.757,0 32.626,-32.627 55.883,-73.729 67.253,-118.86 1.801,-7.156 -1.282,-14.649 -7.599,-18.461 z"
   id="path2-6"
   style="fill:#ffffff" />
	</g>
</g></g></g></g><style
     type="text/css"
     id="style1">
	.st0{fill:#000000;}
</style></svg>
