<?xml version="1.0" encoding="UTF-8" standalone="no"?>
<!-- Created with Inkscape (http://www.inkscape.org/) -->

<svg
   width="1080"
   height="2376"
   viewBox="0 0 285.74999 628.65"
   version="1.1"
   id="svg1"
   xml:space="preserve"
   inkscape:version="1.4 (1:1.4+202410161351+e7c3feb100)"
   sodipodi:docname="side_panel.svg"
   xmlns:inkscape="http://www.inkscape.org/namespaces/inkscape"
   xmlns:sodipodi="http://sodipodi.sourceforge.net/DTD/sodipodi-0.dtd"
   xmlns="http://www.w3.org/2000/svg"
   xmlns:svg="http://www.w3.org/2000/svg"><sodipodi:namedview
     id="namedview1"
     pagecolor="#ffffff"
     bordercolor="#000000"
     borderopacity="0.25"
     inkscape:showpageshadow="2"
     inkscape:pageopacity="0.0"
     inkscape:pagecheckerboard="false"
     inkscape:deskcolor="#d1d1d1"
     inkscape:document-units="px"
     labelstyle="default"
     inkscape:clip-to-page="false"
     inkscape:zoom="0.26218899"
     inkscape:cx="1489.3837"
     inkscape:cy="1298.6815"
     inkscape:window-width="1920"
     inkscape:window-height="1131"
     inkscape:window-x="0"
     inkscape:window-y="32"
     inkscape:window-maximized="1"
     inkscape:current-layer="layer1"
     showguides="true"><inkscape:page
       x="0"
       y="0"
       width="285.75"
       height="628.65002"
       id="page11"
       margin="0"
       bleed="0"
       inkscape:label="Light" /><inkscape:page
       x="326.9588"
       y="-1.1e-05"
       width="285.75"
       height="628.65002"
       id="page1"
       margin="0"
       bleed="0"
       inkscape:label="Dark" /></sodipodi:namedview><defs
     id="defs1" /><g
     inkscape:label="Layer 1"
     inkscape:groupmode="layer"
     id="layer1"><rect
       style="fill:#f9f9f9;stroke-width:2.64583;stroke-linecap:round;stroke-linejoin:round"
       id="rect1"
       width="285.75"
       height="628.64996"
       x="0"
       y="0" /><rect
       style="fill:#292d32;fill-opacity:1;stroke-width:1.76866;stroke-linecap:round;stroke-linejoin:round"
       id="rect5"
       width="33.866665"
       height="33.866665"
       x="-217.28027"
       y="-1.1e-05" /><rect
       style="fill:#f9f9f9;fill-opacity:1;stroke-width:1.76866;stroke-linecap:round;stroke-linejoin:round"
       id="rect6"
       width="33.866665"
       height="33.866665"
       x="-149.54694"
       y="-1.1e-05" /><rect
       style="fill:#b3b3b3;fill-opacity:1;stroke-width:1.76866;stroke-linecap:round;stroke-linejoin:round"
       id="rect7"
       width="33.866665"
       height="33.866665"
       x="-183.4136"
       y="-1.1e-05" /><rect
       style="fill:#3d4247;fill-opacity:1;stroke-width:1.76866;stroke-linecap:round;stroke-linejoin:round"
       id="rect8"
       width="33.866665"
       height="33.866665"
       x="682.8656"
       y="-1.1e-05" /><rect
       style="fill:#1a1a1a;fill-opacity:1;stroke-width:1.76866;stroke-linecap:round;stroke-linejoin:round"
       id="rect9"
       width="33.866665"
       height="33.866665"
       x="750.59894"
       y="-1.1e-05" /><rect
       style="fill:#808080;fill-opacity:1;stroke-width:1.76866;stroke-linecap:round;stroke-linejoin:round"
       id="rect10"
       width="33.866665"
       height="33.866665"
       x="716.73224"
       y="-1.1e-05" /><rect
       style="fill:#1a1a1a;fill-opacity:1;stroke-width:2.64583;stroke-linecap:round;stroke-linejoin:round"
       id="rect11"
       width="285.75"
       height="628.64996"
       x="326.9588"
       y="3.7081008e-07" /><rect
       style="fill:#000000;stroke:none;stroke-width:1.05833;stroke-linecap:round;stroke-linejoin:round;opacity:0.34915687"
       id="rect2"
       width="285.75"
       height="628.64996"
       x="0"
       y="0" /><rect
       style="opacity:1;fill:#ffffff;stroke:none;stroke-width:0.986767;stroke-linecap:round;stroke-linejoin:round"
       id="rect4"
       width="248.41211"
       height="628.64996"
       x="37.337887"
       y="0" /><text
       xml:space="preserve"
       style="font-weight:bold;font-size:16.9333px;line-height:1.5;font-family:'Roboto Condensed';-inkscape-font-specification:'Roboto Condensed,  Bold';text-align:center;letter-spacing:0px;writing-mode:lr-tb;direction:ltr;text-anchor:middle;fill:#000000;fill-opacity:1;stroke-width:2.64583;stroke-linecap:round;stroke-linejoin:round"
       x="218.42429"
       y="53.45713"
       id="text5"><tspan
         sodipodi:role="line"
         id="tspan5"
         style="font-size:16.9333px;fill:#000000;fill-opacity:1;stroke-width:2.64583"
         x="218.42429"
         y="53.45713">اللَّوْحَةُ الْجَانِبِيَّةُ</tspan></text><g
       style="fill:none"
       id="g5"
       transform="matrix(0.82613034,0,0,0.82613034,250.45062,84.478228)"><path
         d="m 15.58,12 c 0,1.98 -1.6,3.58 -3.58,3.58 -1.98,0 -3.57996,-1.6 -3.57996,-3.58 0,-1.98 1.59996,-3.57996 3.57996,-3.57996 1.98,0 3.58,1.59996 3.58,3.57996 z"
         stroke="#292d32"
         stroke-width="1.5"
         stroke-linecap="round"
         stroke-linejoin="round"
         id="path1" /><path
         d="m 12,20.27 c 3.53,0 6.82,-2.08 9.11,-5.68 0.9,-1.41 0.9,-3.78 0,-5.19003 -2.29,-3.6 -5.58,-5.68 -9.11,-5.68 -3.53003,0 -6.82003,2.08 -9.11003,5.68 -0.9,1.41003 -0.9,3.78003 0,5.19003 2.29,3.6 5.58,5.68 9.11003,5.68 z"
         stroke="#292d32"
         stroke-width="1.5"
         stroke-linecap="round"
         stroke-linejoin="round"
         id="path2" /></g><text
       xml:space="preserve"
       style="font-weight:bold;font-size:11.2889px;line-height:1.5;font-family:'Roboto Condensed';-inkscape-font-specification:'Roboto Condensed,  Bold';text-align:center;letter-spacing:0px;writing-mode:lr-tb;direction:ltr;text-anchor:middle;fill:#000000;fill-opacity:1;stroke-width:2.64583;stroke-linecap:round;stroke-linejoin:round"
       x="189.53613"
       y="98.180725"
       id="text6"><tspan
         sodipodi:role="line"
         id="tspan6"
         style="font-style:normal;font-variant:normal;font-weight:normal;font-stretch:normal;font-size:11.2889px;font-family:'Roboto Condensed';-inkscape-font-specification:'Roboto Condensed, ';fill:#000000;fill-opacity:1;stroke-width:2.64583"
         x="189.53613"
         y="98.180725">الِاطِّلَاعُ عَلَى الْبَيَانَاتِ</tspan></text><g
       style="fill:none"
       id="g6"
       transform="matrix(0.81237506,0,0,0.81237506,250.61567,121.9947)"><path
         d="M 9,17 V 11 L 7,13"
         stroke="#292d32"
         stroke-width="1.5"
         stroke-linecap="round"
         stroke-linejoin="round"
         id="path1-3" /><path
         d="m 9,11 2,2"
         stroke="#292d32"
         stroke-width="1.5"
         stroke-linecap="round"
         stroke-linejoin="round"
         id="path2-6" /><path
         d="m 22,10 v 5 c 0,5 -2,7 -7,7 H 9 C 4,22 2,20 2,15 V 9 C 2,4 4,2 9,2 h 5"
         stroke="#292d32"
         stroke-width="1.5"
         stroke-linecap="round"
         stroke-linejoin="round"
         id="path3" /><path
         d="M 22,10 H 18 C 15,10 14,9 14,6 V 2 Z"
         stroke="#292d32"
         stroke-width="1.5"
         stroke-linecap="round"
         stroke-linejoin="round"
         id="path4" /></g><g
       style="fill:none"
       id="g7"
       transform="matrix(0.81237473,0,0,0.81237473,250.61567,160.62744)"><path
         d="m 9,11 v 6 l 2,-2"
         stroke="#292d32"
         stroke-width="1.5"
         stroke-linecap="round"
         stroke-linejoin="round"
         id="path1-7" /><path
         d="M 9,17 7,15"
         stroke="#292d32"
         stroke-width="1.5"
         stroke-linecap="round"
         stroke-linejoin="round"
         id="path2-5" /><path
         d="m 22,10 v 5 c 0,5 -2,7 -7,7 H 9 C 4,22 2,20 2,15 V 9 C 2,4 4,2 9,2 h 5"
         stroke="#292d32"
         stroke-width="1.5"
         stroke-linecap="round"
         stroke-linejoin="round"
         id="path3-3" /><path
         d="M 22,10 H 18 C 15,10 14,9 14,6 V 2 Z"
         stroke="#292d32"
         stroke-width="1.5"
         stroke-linecap="round"
         stroke-linejoin="round"
         id="path4-5" /></g><text
       xml:space="preserve"
       style="font-weight:bold;font-size:11.2889px;line-height:1.5;font-family:'Roboto Condensed';-inkscape-font-specification:'Roboto Condensed,  Bold';text-align:center;letter-spacing:0px;writing-mode:lr-tb;direction:ltr;text-anchor:middle;fill:#000000;fill-opacity:1;stroke-width:2.64583;stroke-linecap:round;stroke-linejoin:round"
       x="203.29166"
       y="136.65388"
       id="text8"><tspan
         sodipodi:role="line"
         id="tspan8"
         style="font-style:normal;font-variant:normal;font-weight:normal;font-stretch:normal;font-size:11.2889px;font-family:'Roboto Condensed';-inkscape-font-specification:'Roboto Condensed, ';fill:#000000;fill-opacity:1;stroke-width:2.64583"
         x="203.29166"
         y="136.65388">حِفْظُ الْبَيَانَاتِ</tspan></text><text
       xml:space="preserve"
       style="font-weight:bold;font-size:11.2889px;line-height:1.5;font-family:'Roboto Condensed';-inkscape-font-specification:'Roboto Condensed,  Bold';text-align:center;letter-spacing:0px;writing-mode:lr-tb;direction:ltr;text-anchor:middle;fill:#000000;fill-opacity:1;stroke-width:2.64583;stroke-linecap:round;stroke-linejoin:round"
       x="199.23895"
       y="175.0834"
       id="text9"><tspan
         sodipodi:role="line"
         id="tspan9"
         style="font-style:normal;font-variant:normal;font-weight:normal;font-stretch:normal;font-size:11.2889px;font-family:'Roboto Condensed';-inkscape-font-specification:'Roboto Condensed, ';fill:#000000;fill-opacity:1;stroke-width:2.64583"
         x="199.23895"
         y="175.0834">تَحْمِيلُ الْبَيَانَاتِ</tspan></text><text
       xml:space="preserve"
       style="font-weight:bold;font-size:11.2889px;line-height:1.5;font-family:'Roboto Condensed';-inkscape-font-specification:'Roboto Condensed,  Bold';text-align:center;letter-spacing:0px;writing-mode:lr-tb;direction:ltr;text-anchor:middle;fill:#000000;fill-opacity:1;stroke-width:2.64583;stroke-linecap:round;stroke-linejoin:round"
       x="201.2928"
       y="253.46858"
       id="text10"><tspan
         sodipodi:role="line"
         id="tspan10"
         style="font-style:normal;font-variant:normal;font-weight:normal;font-stretch:normal;font-size:11.2889px;font-family:'Roboto Condensed';-inkscape-font-specification:'Roboto Condensed, ';fill:#000000;fill-opacity:1;stroke-width:2.64583"
         x="201.2928"
         y="253.46858">لوحَةُ الْمَعَارِضِ</tspan></text><text
       xml:space="preserve"
       style="font-weight:bold;font-size:11.2889px;line-height:1.5;font-family:'Roboto Condensed';-inkscape-font-specification:'Roboto Condensed,  Bold';text-align:center;letter-spacing:0px;writing-mode:lr-tb;direction:ltr;text-anchor:middle;fill:#000000;fill-opacity:1;stroke-width:2.64583;stroke-linecap:round;stroke-linejoin:round"
       x="211.65672"
       y="290.30164"
       id="text11"><tspan
         sodipodi:role="line"
         id="tspan11"
         style="font-style:normal;font-variant:normal;font-weight:normal;font-stretch:normal;font-size:11.2889px;font-family:'Roboto Condensed';-inkscape-font-specification:'Roboto Condensed, ';fill:#000000;fill-opacity:1;stroke-width:2.64583"
         x="211.65672"
         y="290.30164">الإِعْدَادَاتُ</tspan></text><g
       style="fill:none"
       id="g11"
       transform="matrix(0.81199728,0,0,0.81199728,250.61614,277.85974)"><path
         d="m 12,15 c 1.6569,0 3,-1.3431 3,-3 0,-1.6569 -1.3431,-3 -3,-3 -1.6569,0 -3,1.3431 -3,3 0,1.6569 1.3431,3 3,3 z"
         stroke="#292d32"
         stroke-width="1.5"
         stroke-miterlimit="10"
         stroke-linecap="round"
         stroke-linejoin="round"
         id="path1-6" /><path
         d="m 2,12.8799 v -1.76 c 0,-1.04 0.85,-1.89996 1.9,-1.89996 1.81,0 2.55,-1.28 1.64,-2.85 -0.52,-0.9 -0.21,-2.07 0.7,-2.59 l 1.73,-0.99 c 0.79,-0.47 1.81,-0.19 2.28,0.6 l 0.11,0.19 c 0.9,1.57 2.38,1.57 3.29,0 l 0.11,-0.19 c 0.47,-0.79 1.49,-1.07 2.28,-0.6 l 1.73,0.99 c 0.91,0.52 1.22,1.69 0.7,2.59 -0.91,1.57 -0.17,2.85 1.64,2.85 1.04,0 1.9,0.84996 1.9,1.89996 v 1.76 c 0,1.04 -0.85,1.9 -1.9,1.9 -1.81,0 -2.55,1.28 -1.64,2.85 0.52,0.91 0.21,2.07 -0.7,2.59 l -1.73,0.99 c -0.79,0.47 -1.81,0.19 -2.28,-0.6 l -0.11,-0.19 c -0.9,-1.57 -2.38,-1.57 -3.29,0 l -0.11,0.19 c -0.47,0.79 -1.49,1.07 -2.28,0.6 l -1.73,-0.99 c -0.91,-0.52 -1.22,-1.69 -0.7,-2.59 0.91,-1.57 0.17,-2.85 -1.64,-2.85 -1.05,0 -1.9,-0.86 -1.9,-1.9 z"
         stroke="#292d32"
         stroke-width="1.5"
         stroke-miterlimit="10"
         stroke-linecap="round"
         stroke-linejoin="round"
         id="path2-2" /></g><g
       style="fill:none"
       id="g12"
       transform="matrix(0.81237472,0,0,0.81237472,250.61568,239.68431)"><path
         d="M 2,22 H 22"
         stroke="#292d32"
         stroke-width="1.5"
         stroke-miterlimit="10"
         stroke-linecap="round"
         stroke-linejoin="round"
         id="path1-9" /><path
         d="m 9.75,4 v 18 h 4.5 V 4 c 0,-1.1 -0.45,-2 -1.8,-2 h -0.9 C 10.2,2 9.75,2.9 9.75,4 Z"
         stroke="#292d32"
         stroke-width="1.5"
         stroke-linecap="round"
         stroke-linejoin="round"
         id="path2-1" /><path
         d="M 3,10 V 22 H 7 V 10 C 7,8.9 6.6,8 5.4,8 H 4.6 C 3.4,8 3,8.9 3,10 Z"
         stroke="#292d32"
         stroke-width="1.5"
         stroke-linecap="round"
         stroke-linejoin="round"
         id="path3-2" /><path
         d="m 17,15 v 7 h 4 v -7 c 0,-1.1 -0.4,-2 -1.6,-2 H 18.6 C 17.4,13 17,13.9 17,15 Z"
         stroke="#292d32"
         stroke-width="1.5"
         stroke-linecap="round"
         stroke-linejoin="round"
         id="path4-7" /></g><text
       xml:space="preserve"
       style="font-weight:bold;font-size:11.2889px;line-height:1.5;font-family:'Roboto Condensed';-inkscape-font-specification:'Roboto Condensed,  Bold';text-align:center;letter-spacing:0px;writing-mode:lr-tb;direction:ltr;text-anchor:middle;fill:#000000;fill-opacity:1;stroke-width:2.64583;stroke-linecap:round;stroke-linejoin:round"
       x="199.23895"
       y="214.85457"
       id="text12"><tspan
         sodipodi:role="line"
         id="tspan12"
         style="font-style:normal;font-variant:normal;font-weight:normal;font-stretch:normal;font-size:11.2889px;font-family:'Roboto Condensed';-inkscape-font-specification:'Roboto Condensed, ';fill:#000000;fill-opacity:1;stroke-width:2.64583"
         x="199.23895"
         y="214.85457">حَذْفُ الْبَيَانَاتِ</tspan></text><g
       style="fill:none"
       id="g13"
       transform="matrix(0.8956954,0,0,0.8956954,249.61583,199.15603)"><path
         d="m 21,5.97998 c -3.33,-0.33 -6.68,-0.5 -10.02,-0.5 -1.98,0 -3.96,0.1 -5.94,0.3 l -2.04,0.2"
         stroke="#292d32"
         stroke-width="1.5"
         stroke-linecap="round"
         stroke-linejoin="round"
         id="path1-0" /><path
         d="M 8.5,4.97 8.72,3.66 C 8.88,2.71 9,2 10.69,2 h 2.62 c 1.69,0 1.82,0.75 1.97,1.67 l 0.22,1.3"
         stroke="#292d32"
         stroke-width="1.5"
         stroke-linecap="round"
         stroke-linejoin="round"
         id="path2-9" /><path
         d="M 18.85,9.14001 18.2,19.21 C 18.09,20.78 18,22 15.21,22 H 8.79002 c -2.79,0 -2.88,-1.22 -2.99,-2.79 l -0.65,-10.06999"
         stroke="#292d32"
         stroke-width="1.5"
         stroke-linecap="round"
         stroke-linejoin="round"
         id="path3-36" /><path
         d="m 10.33,16.5 h 3.33"
         stroke="#292d32"
         stroke-width="1.5"
         stroke-linecap="round"
         stroke-linejoin="round"
         id="path4-0" /><path
         d="m 9.5,12.5 h 5"
         stroke="#292d32"
         stroke-width="1.5"
         stroke-linecap="round"
         stroke-linejoin="round"
         id="path5" /></g><rect
       style="opacity:1;fill:#3d4247;stroke:none;stroke-width:0.986767;stroke-linecap:round;stroke-linejoin:round;fill-opacity:1"
       id="rect13"
       width="248.41211"
       height="628.64996"
       x="364.29669"
       y="-9.8554723e-15" /><text
       xml:space="preserve"
       style="font-weight:bold;font-size:16.9333px;line-height:1.5;font-family:'Roboto Condensed';-inkscape-font-specification:'Roboto Condensed,  Bold';text-align:center;letter-spacing:0px;writing-mode:lr-tb;direction:ltr;text-anchor:middle;fill:#ffffff;fill-opacity:1;stroke-width:2.64583;stroke-linecap:round;stroke-linejoin:round"
       x="545.38312"
       y="53.45713"
       id="text13"><tspan
         sodipodi:role="line"
         id="tspan13"
         style="font-size:16.9333px;fill:#ffffff;fill-opacity:1;stroke-width:2.64583"
         x="545.38312"
         y="53.45713">اللَّوْحَةُ الْجَانِبِيَّةُ</tspan></text><g
       style="fill:none;stroke:#ffffff"
       id="g14"
       transform="matrix(0.82613034,0,0,0.82613034,577.40945,84.478228)"><path
         d="m 15.58,12 c 0,1.98 -1.6,3.58 -3.58,3.58 -1.98,0 -3.57996,-1.6 -3.57996,-3.58 0,-1.98 1.59996,-3.57996 3.57996,-3.57996 1.98,0 3.58,1.59996 3.58,3.57996 z"
         stroke="#292d32"
         stroke-width="1.5"
         stroke-linecap="round"
         stroke-linejoin="round"
         id="path13"
         style="stroke:#ffffff" /><path
         d="m 12,20.27 c 3.53,0 6.82,-2.08 9.11,-5.68 0.9,-1.41 0.9,-3.78 0,-5.19003 -2.29,-3.6 -5.58,-5.68 -9.11,-5.68 -3.53003,0 -6.82003,2.08 -9.11003,5.68 -0.9,1.41003 -0.9,3.78003 0,5.19003 2.29,3.6 5.58,5.68 9.11003,5.68 z"
         stroke="#292d32"
         stroke-width="1.5"
         stroke-linecap="round"
         stroke-linejoin="round"
         id="path14"
         style="stroke:#ffffff" /></g><text
       xml:space="preserve"
       style="font-weight:bold;font-size:11.2889px;line-height:1.5;font-family:'Roboto Condensed';-inkscape-font-specification:'Roboto Condensed,  Bold';text-align:center;letter-spacing:0px;writing-mode:lr-tb;direction:ltr;text-anchor:middle;fill:#ffffff;fill-opacity:1;stroke-width:2.64583;stroke-linecap:round;stroke-linejoin:round"
       x="516.495"
       y="98.180725"
       id="text14"><tspan
         sodipodi:role="line"
         id="tspan14"
         style="font-style:normal;font-variant:normal;font-weight:normal;font-stretch:normal;font-size:11.2889px;font-family:'Roboto Condensed';-inkscape-font-specification:'Roboto Condensed, ';fill:#ffffff;fill-opacity:1;stroke-width:2.64583"
         x="516.495"
         y="98.180725">الِاطِّلَاعُ عَلَى الْبَيَانَاتِ</tspan></text><g
       style="fill:none;stroke:#ffffff"
       id="g18"
       transform="matrix(0.81237506,0,0,0.81237506,577.5745,121.9947)"><path
         d="M 9,17 V 11 L 7,13"
         stroke="#292d32"
         stroke-width="1.5"
         stroke-linecap="round"
         stroke-linejoin="round"
         id="path15"
         style="stroke:#ffffff" /><path
         d="m 9,11 2,2"
         stroke="#292d32"
         stroke-width="1.5"
         stroke-linecap="round"
         stroke-linejoin="round"
         id="path16"
         style="stroke:#ffffff" /><path
         d="m 22,10 v 5 c 0,5 -2,7 -7,7 H 9 C 4,22 2,20 2,15 V 9 C 2,4 4,2 9,2 h 5"
         stroke="#292d32"
         stroke-width="1.5"
         stroke-linecap="round"
         stroke-linejoin="round"
         id="path17"
         style="stroke:#ffffff" /><path
         d="M 22,10 H 18 C 15,10 14,9 14,6 V 2 Z"
         stroke="#292d32"
         stroke-width="1.5"
         stroke-linecap="round"
         stroke-linejoin="round"
         id="path18"
         style="stroke:#ffffff" /></g><g
       style="fill:none;stroke:#ffffff"
       id="g22"
       transform="matrix(0.81237473,0,0,0.81237473,577.5745,160.62744)"><path
         d="m 9,11 v 6 l 2,-2"
         stroke="#292d32"
         stroke-width="1.5"
         stroke-linecap="round"
         stroke-linejoin="round"
         id="path19"
         style="stroke:#ffffff" /><path
         d="M 9,17 7,15"
         stroke="#292d32"
         stroke-width="1.5"
         stroke-linecap="round"
         stroke-linejoin="round"
         id="path20"
         style="stroke:#ffffff" /><path
         d="m 22,10 v 5 c 0,5 -2,7 -7,7 H 9 C 4,22 2,20 2,15 V 9 C 2,4 4,2 9,2 h 5"
         stroke="#292d32"
         stroke-width="1.5"
         stroke-linecap="round"
         stroke-linejoin="round"
         id="path21"
         style="stroke:#ffffff" /><path
         d="M 22,10 H 18 C 15,10 14,9 14,6 V 2 Z"
         stroke="#292d32"
         stroke-width="1.5"
         stroke-linecap="round"
         stroke-linejoin="round"
         id="path22"
         style="stroke:#ffffff" /></g><text
       xml:space="preserve"
       style="font-weight:bold;font-size:11.2889px;line-height:1.5;font-family:'Roboto Condensed';-inkscape-font-specification:'Roboto Condensed,  Bold';text-align:center;letter-spacing:0px;writing-mode:lr-tb;direction:ltr;text-anchor:middle;fill:#ffffff;fill-opacity:1;stroke-width:2.64583;stroke-linecap:round;stroke-linejoin:round"
       x="530.25049"
       y="136.65388"
       id="text22"><tspan
         sodipodi:role="line"
         id="tspan22"
         style="font-style:normal;font-variant:normal;font-weight:normal;font-stretch:normal;font-size:11.2889px;font-family:'Roboto Condensed';-inkscape-font-specification:'Roboto Condensed, ';fill:#ffffff;fill-opacity:1;stroke-width:2.64583"
         x="530.25049"
         y="136.65388">حِفْظُ الْبَيَانَاتِ</tspan></text><text
       xml:space="preserve"
       style="font-weight:bold;font-size:11.2889px;line-height:1.5;font-family:'Roboto Condensed';-inkscape-font-specification:'Roboto Condensed,  Bold';text-align:center;letter-spacing:0px;writing-mode:lr-tb;direction:ltr;text-anchor:middle;fill:#ffffff;fill-opacity:1;stroke-width:2.64583;stroke-linecap:round;stroke-linejoin:round"
       x="526.19781"
       y="175.0834"
       id="text25"><tspan
         sodipodi:role="line"
         id="tspan25"
         style="font-style:normal;font-variant:normal;font-weight:normal;font-stretch:normal;font-size:11.2889px;font-family:'Roboto Condensed';-inkscape-font-specification:'Roboto Condensed, ';fill:#ffffff;fill-opacity:1;stroke-width:2.64583"
         x="526.19781"
         y="175.0834">تَحْمِيلُ الْبَيَانَاتِ</tspan></text><text
       xml:space="preserve"
       style="font-weight:bold;font-size:11.2889px;line-height:1.5;font-family:'Roboto Condensed';-inkscape-font-specification:'Roboto Condensed,  Bold';text-align:center;letter-spacing:0px;writing-mode:lr-tb;direction:ltr;text-anchor:middle;fill:#ffffff;fill-opacity:1;stroke-width:2.64583;stroke-linecap:round;stroke-linejoin:round"
       x="528.25165"
       y="253.46858"
       id="text26"><tspan
         sodipodi:role="line"
         id="tspan26"
         style="font-style:normal;font-variant:normal;font-weight:normal;font-stretch:normal;font-size:11.2889px;font-family:'Roboto Condensed';-inkscape-font-specification:'Roboto Condensed, ';fill:#ffffff;fill-opacity:1;stroke-width:2.64583"
         x="528.25165"
         y="253.46858">لوحَةُ الْمَعَارِضِ</tspan></text><text
       xml:space="preserve"
       style="font-weight:bold;font-size:11.2889px;line-height:1.5;font-family:'Roboto Condensed';-inkscape-font-specification:'Roboto Condensed,  Bold';text-align:center;letter-spacing:0px;writing-mode:lr-tb;direction:ltr;text-anchor:middle;fill:#ffffff;fill-opacity:1;stroke-width:2.64583;stroke-linecap:round;stroke-linejoin:round"
       x="538.6156"
       y="290.30164"
       id="text27"><tspan
         sodipodi:role="line"
         id="tspan27"
         style="font-style:normal;font-variant:normal;font-weight:normal;font-stretch:normal;font-size:11.2889px;font-family:'Roboto Condensed';-inkscape-font-specification:'Roboto Condensed, ';fill:#ffffff;fill-opacity:1;stroke-width:2.64583"
         x="538.6156"
         y="290.30164">الإِعْدَادَاتُ</tspan></text><g
       style="fill:none;stroke:#ffffff"
       id="g28"
       transform="matrix(0.81199728,0,0,0.81199728,577.57497,277.85974)"><path
         d="m 12,15 c 1.6569,0 3,-1.3431 3,-3 0,-1.6569 -1.3431,-3 -3,-3 -1.6569,0 -3,1.3431 -3,3 0,1.6569 1.3431,3 3,3 z"
         stroke="#292d32"
         stroke-width="1.5"
         stroke-miterlimit="10"
         stroke-linecap="round"
         stroke-linejoin="round"
         id="path27"
         style="stroke:#ffffff" /><path
         d="m 2,12.8799 v -1.76 c 0,-1.04 0.85,-1.89996 1.9,-1.89996 1.81,0 2.55,-1.28 1.64,-2.85 -0.52,-0.9 -0.21,-2.07 0.7,-2.59 l 1.73,-0.99 c 0.79,-0.47 1.81,-0.19 2.28,0.6 l 0.11,0.19 c 0.9,1.57 2.38,1.57 3.29,0 l 0.11,-0.19 c 0.47,-0.79 1.49,-1.07 2.28,-0.6 l 1.73,0.99 c 0.91,0.52 1.22,1.69 0.7,2.59 -0.91,1.57 -0.17,2.85 1.64,2.85 1.04,0 1.9,0.84996 1.9,1.89996 v 1.76 c 0,1.04 -0.85,1.9 -1.9,1.9 -1.81,0 -2.55,1.28 -1.64,2.85 0.52,0.91 0.21,2.07 -0.7,2.59 l -1.73,0.99 c -0.79,0.47 -1.81,0.19 -2.28,-0.6 l -0.11,-0.19 c -0.9,-1.57 -2.38,-1.57 -3.29,0 l -0.11,0.19 c -0.47,0.79 -1.49,1.07 -2.28,0.6 l -1.73,-0.99 c -0.91,-0.52 -1.22,-1.69 -0.7,-2.59 0.91,-1.57 0.17,-2.85 -1.64,-2.85 -1.05,0 -1.9,-0.86 -1.9,-1.9 z"
         stroke="#292d32"
         stroke-width="1.5"
         stroke-miterlimit="10"
         stroke-linecap="round"
         stroke-linejoin="round"
         id="path28"
         style="stroke:#ffffff" /></g><g
       style="fill:none;stroke:#ffffff"
       id="g32"
       transform="matrix(0.81237472,0,0,0.81237472,577.57451,239.68431)"><path
         d="M 2,22 H 22"
         stroke="#292d32"
         stroke-width="1.5"
         stroke-miterlimit="10"
         stroke-linecap="round"
         stroke-linejoin="round"
         id="path29"
         style="stroke:#ffffff" /><path
         d="m 9.75,4 v 18 h 4.5 V 4 c 0,-1.1 -0.45,-2 -1.8,-2 h -0.9 C 10.2,2 9.75,2.9 9.75,4 Z"
         stroke="#292d32"
         stroke-width="1.5"
         stroke-linecap="round"
         stroke-linejoin="round"
         id="path30"
         style="stroke:#ffffff" /><path
         d="M 3,10 V 22 H 7 V 10 C 7,8.9 6.6,8 5.4,8 H 4.6 C 3.4,8 3,8.9 3,10 Z"
         stroke="#292d32"
         stroke-width="1.5"
         stroke-linecap="round"
         stroke-linejoin="round"
         id="path31"
         style="stroke:#ffffff" /><path
         d="m 17,15 v 7 h 4 v -7 c 0,-1.1 -0.4,-2 -1.6,-2 H 18.6 C 17.4,13 17,13.9 17,15 Z"
         stroke="#292d32"
         stroke-width="1.5"
         stroke-linecap="round"
         stroke-linejoin="round"
         id="path32"
         style="stroke:#ffffff" /></g><text
       xml:space="preserve"
       style="font-weight:bold;font-size:11.2889px;line-height:1.5;font-family:'Roboto Condensed';-inkscape-font-specification:'Roboto Condensed,  Bold';text-align:center;letter-spacing:0px;writing-mode:lr-tb;direction:ltr;text-anchor:middle;fill:#ffffff;fill-opacity:1;stroke-width:2.64583;stroke-linecap:round;stroke-linejoin:round"
       x="526.19781"
       y="214.85457"
       id="text32"><tspan
         sodipodi:role="line"
         id="tspan32"
         style="font-style:normal;font-variant:normal;font-weight:normal;font-stretch:normal;font-size:11.2889px;font-family:'Roboto Condensed';-inkscape-font-specification:'Roboto Condensed, ';fill:#ffffff;fill-opacity:1;stroke-width:2.64583"
         x="526.19781"
         y="214.85457">حَذْفُ الْبَيَانَاتِ</tspan></text><g
       style="fill:none;stroke:#ffffff"
       id="g37"
       transform="matrix(0.8956954,0,0,0.8956954,576.57466,199.15603)"><path
         d="m 21,5.97998 c -3.33,-0.33 -6.68,-0.5 -10.02,-0.5 -1.98,0 -3.96,0.1 -5.94,0.3 l -2.04,0.2"
         stroke="#292d32"
         stroke-width="1.5"
         stroke-linecap="round"
         stroke-linejoin="round"
         id="path33"
         style="stroke:#ffffff" /><path
         d="M 8.5,4.97 8.72,3.66 C 8.88,2.71 9,2 10.69,2 h 2.62 c 1.69,0 1.82,0.75 1.97,1.67 l 0.22,1.3"
         stroke="#292d32"
         stroke-width="1.5"
         stroke-linecap="round"
         stroke-linejoin="round"
         id="path34"
         style="stroke:#ffffff" /><path
         d="M 18.85,9.14001 18.2,19.21 C 18.09,20.78 18,22 15.21,22 H 8.79002 c -2.79,0 -2.88,-1.22 -2.99,-2.79 l -0.65,-10.06999"
         stroke="#292d32"
         stroke-width="1.5"
         stroke-linecap="round"
         stroke-linejoin="round"
         id="path35"
         style="stroke:#ffffff" /><path
         d="m 10.33,16.5 h 3.33"
         stroke="#292d32"
         stroke-width="1.5"
         stroke-linecap="round"
         stroke-linejoin="round"
         id="path36"
         style="stroke:#ffffff" /><path
         d="m 9.5,12.5 h 5"
         stroke="#292d32"
         stroke-width="1.5"
         stroke-linecap="round"
         stroke-linejoin="round"
         id="path37"
         style="stroke:#ffffff" /></g></g></svg>
